<?xml version="1.0" standalone="no"?>
<!DOCTYPE svg PUBLIC "-//W3C//DTD SVG 20010904//EN"
 "http://www.w3.org/TR/2001/REC-SVG-20010904/DTD/svg10.dtd">
<svg version="1.0" xmlns="http://www.w3.org/2000/svg"
 width="784.000000pt" height="784.000000pt" viewBox="0 0 784.000000 784.000000"
 preserveAspectRatio="xMidYMid meet">
<metadata>
Created by potrace 1.14, written by Peter Selinger 2001-2017
</metadata>
<g transform="translate(0.000000,784.000000) scale(0.100000,-0.100000)"
fill="#000000" stroke="none">
<path d="M0 3920 l0 -3920 3920 0 3920 0 0 3920 0 3920 -3920 0 -3920 0 0
-3920z m2490 2640 l0 -100 -355 0 -355 0 0 -285 0 -285 335 0 336 0 -3 -92 -3
-93 -332 -3 -333 -2 0 -345 0 -345 -110 0 -110 0 0 818 c0 450 3 822 7 825 3
4 213 7 465 7 l458 0 0 -100z m3801 -725 c175 -451 319 -821 319 -823 0 -1
-48 -1 -106 0 l-107 3 -97 255 -98 255 -317 3 -316 2 -23 -52 c-13 -29 -58
-146 -102 -260 l-79 -208 -109 0 c-99 0 -108 1 -102 18 4 9 147 380 319 825
l312 808 93 -3 93 -3 320 -820z m-4243 -3942 l2 -823 -110 0 -110 0 0 818 c0
450 3 822 7 826 4 4 52 5 107 4 l101 -3 3 -822z m3660 95 l2 -728 360 0 360 0
0 -95 0 -95 -470 0 -470 0 0 818 c0 450 3 822 7 826 4 4 52 5 107 4 l101 -3 3
-727z"/>
<path d="M5856 6343 c-10 -32 -65 -185 -122 -341 -57 -156 -104 -285 -104
-288 0 -2 113 -4 251 -4 235 0 251 1 244 18 -54 137 -199 536 -217 594 -13 43
-26 78 -29 78 -3 0 -13 -26 -23 -57z"/>
</g>
</svg>
